NotoSerif-CondensedLight.ufo
<glyph name="uni0191" format="2">
  <advance width="535"/>
  <unicode hex="0191"/>
  <anchor x="109" y="-10" name="bottom"/>
  <anchor x="324" y="714" name="top"/>
  <anchor x="522" y="714" name="topright"/>
  <outline>
    <contour>
      <point x="109" y="-10" type="curve" smooth="yes"/>
      <point x="203" y="-10"/>
      <point x="249" y="61"/>
      <point x="249" y="167" type="curve" smooth="yes"/>
      <point x="249" y="358" type="line"/>
      <point x="440" y="358" type="line"/>
      <point x="440" y="383" type="line"/>
      <point x="249" y="383" type="line"/>
      <point x="249" y="689" type="line"/>
      <point x="414" y="689" type="line" smooth="yes"/>
      <point x="466" y="689"/>
      <point x="472" y="675"/>
      <point x="474" y="620" type="curve" smooth="yes"/>
      <point x="477" y="551" type="line"/>
      <point x="497" y="551" type="line"/>
      <point x="492" y="714" type="line"/>
      <point x="148" y="714" type="line"/>
      <point x="148" y="694" type="line"/>
      <point x="165" y="694" type="line" smooth="yes"/>
      <point x="215" y="694"/>
      <point x="221" y="683"/>
      <point x="221" y="606" type="curve" smooth="yes"/>
      <point x="221" y="170" type="line" smooth="yes"/>
      <point x="221" y="72"/>
      <point x="187" y="15"/>
      <point x="110" y="15" type="curve" smooth="yes"/>
      <point x="42" y="15"/>
      <point x="14" y="60"/>
      <point x="14" y="144" type="curve"/>
      <point x="1" y="144"/>
      <point x="-7" y="130"/>
      <point x="-7" y="98" type="curve" smooth="yes"/>
      <point x="-7" y="50"/>
      <point x="24" y="-10"/>
    </contour>
  </outline>
</glyph>
<glyph name="florin" format="2">
  <advance width="313"/>
  <unicode hex="0192"/>
  <anchor x="81" y="-10" name="bottom"/>
  <anchor x="260" y="772" name="top"/>
  <anchor x="353" y="772" name="topright"/>
  <outline>
    <contour>
      <point x="81" y="-10" type="curve" smooth="yes"/>
      <point x="150" y="-10"/>
      <point x="191" y="41"/>
      <point x="191" y="146" type="curve" smooth="yes"/>
      <point x="191" y="511" type="line"/>
      <point x="301" y="511" type="line"/>
      <point x="301" y="536" type="line"/>
      <point x="191" y="536" type="line"/>
      <point x="191" y="600" type="line" smooth="yes"/>
      <point x="191" y="684"/>
      <point x="214" y="747"/>
      <point x="284" y="747" type="curve" smooth="yes"/>
      <point x="332" y="747"/>
      <point x="343" y="715"/>
      <point x="343" y="658" type="curve"/>
      <point x="354" y="658"/>
      <point x="364" y="674"/>
      <point x="364" y="697" type="curve" smooth="yes"/>
      <point x="364" y="748"/>
      <point x="332" y="772"/>
      <point x="284" y="772" type="curve" smooth="yes"/>
      <point x="207" y="772"/>
      <point x="163" y="717"/>
      <point x="163" y="601" type="curve" smooth="yes"/>
      <point x="163" y="536" type="line"/>
      <point x="93" y="536" type="line"/>
      <point x="93" y="511" type="line"/>
      <point x="163" y="511" type="line"/>
      <point x="163" y="149" type="line" smooth="yes"/>
      <point x="163" y="52"/>
      <point x="134" y="15"/>
      <point x="82" y="15" type="curve" smooth="yes"/>
      <point x="38" y="15"/>
      <point x="14" y="40"/>
      <point x="14" y="119" type="curve"/>
      <point x="1" y="119"/>
      <point x="-7" y="105"/>
      <point x="-7" y="73" type="curve" smooth="yes"/>
      <point x="-7" y="30"/>
      <point x="20" y="-10"/>
    </contour>
  </outline>
</glyph>
<glyph name="uni0489" format="2">
  <advance width="956"/>
  <unicode hex="0489"/>
  <outline>
    <contour>
      <point x="687" y="459" type="line"/>
      <point x="726" y="486"/>
      <point x="785" y="522"/>
      <point x="834" y="551" type="curve"/>
      <point x="812" y="572" type="line"/>
      <point x="761" y="550"/>
      <point x="701" y="521"/>
      <point x="657" y="494" type="curve"/>
      <point x="657" y="489" type="line"/>
    </contour>
    <contour>
      <point x="143" y="-53" type="line"/>
      <point x="194" y="-31"/>
      <point x="253" y="0"/>
      <point x="296" y="29" type="curve"/>
      <point x="297" y="34" type="line"/>
      <point x="267" y="64" type="line"/>
      <point x="228" y="35"/>
      <point x="170" y="-3"/>
      <point x="122" y="-32" type="curve"/>
    </contour>
    <contour>
      <point x="187" y="228" type="curve"/>
      <point x="191" y="231" type="line"/>
      <point x="191" y="274" type="line"/>
      <point x="143" y="282"/>
      <point x="75" y="298"/>
      <point x="20" y="313" type="curve"/>
      <point x="20" y="283" type="line"/>
      <point x="71" y="262"/>
      <point x="136" y="240"/>
    </contour>
    <contour>
      <point x="436" y="-188" type="curve"/>
      <point x="465" y="-188" type="line"/>
      <point x="486" y="-136"/>
      <point x="507" y="-72"/>
      <point x="519" y="-21" type="curve"/>
      <point x="516" y="-17" type="line"/>
      <point x="473" y="-17" type="line"/>
      <point x="465" y="-65"/>
      <point x="450" y="-133"/>
    </contour>
    <contour>
      <point x="770" y="-98" type="curve"/>
      <point x="790" y="-76" type="line"/>
      <point x="769" y="-25"/>
      <point x="738" y="35"/>
      <point x="710" y="79" type="curve"/>
      <point x="705" y="80" type="line"/>
      <point x="675" y="50" type="line"/>
      <point x="703" y="10"/>
      <point x="741" y="-49"/>
    </contour>
    <contour>
      <point x="250" y="439" type="line"/>
      <point x="280" y="469" type="line"/>
      <point x="251" y="508"/>
      <point x="214" y="566"/>
      <point x="184" y="614" type="curve"/>
      <point x="163" y="592" type="line"/>
      <point x="185" y="542"/>
      <point x="216" y="483"/>
      <point x="245" y="439" type="curve"/>
    </contour>
    <contour>
      <point x="936" y="225" type="curve"/>
      <point x="936" y="254" type="line"/>
      <point x="884" y="276"/>
      <point x="819" y="299"/>
      <point x="768" y="312" type="curve"/>
      <point x="764" y="309" type="line"/>
      <point x="764" y="266" type="line"/>
      <point x="812" y="258"/>
      <point x="881" y="241"/>
    </contour>
    <contour>
      <point x="447" y="557" type="line"/>
      <point x="489" y="557" type="line"/>
      <point x="496" y="605"/>
      <point x="509" y="673"/>
      <point x="522" y="728" type="curve"/>
      <point x="493" y="728" type="line"/>
      <point x="474" y="676"/>
      <point x="454" y="612"/>
      <point x="444" y="562" type="curve"/>
    </contour>
  </outline>
</glyph>
<glyph name="uni1AB9" format="2">
  <unicode hex="1AB9"/>
  <anchor x="-306" y="65" name="_bottom"/>
  <anchor x="-306" y="-240" name="bottom"/>
  <outline>
    <contour>
      <point x="-330" y="-240" type="line"/>
      <point x="-255" y="26" type="line"/>
      <point x="-280" y="35" type="line"/>
      <point x="-357" y="-230" type="line"/>
    </contour>
  </outline>
</glyph>
<glyph name="uni1ABA" format="2">
  <unicode hex="1ABA"/>
  <anchor x="-314" y="65" name="_bottom"/>
  <anchor x="-314" y="-265" name="bottom"/>
  <outline>
    <contour>
      <point x="-332" y="-240" type="line"/>
      <point x="-257" y="26" type="line"/>
      <point x="-282" y="35" type="line"/>
      <point x="-359" y="-230" type="line"/>
    </contour>
    <contour>
      <point x="-340" y="-265" type="curve" smooth="yes"/>
      <point x="-326" y="-265"/>
      <point x="-313" y="-255"/>
      <point x="-313" y="-226" type="curve" smooth="yes"/>
      <point x="-313" y="-196"/>
      <point x="-326" y="-186"/>
      <point x="-340" y="-186" type="curve" smooth="yes"/>
      <point x="-357" y="-186"/>
      <point x="-370" y="-196"/>
      <point x="-370" y="-226" type="curve" smooth="yes"/>
      <point x="-370" y="-255"/>
      <point x="-357" y="-265"/>
    </contour>
  </outline>
</glyph>
<glyph name="uni1D09" format="2">
  <advance width="213"/>
  <unicode hex="1D09"/>
  <anchor x="107" y="-159" name="bottom"/>
  <anchor x="107" y="536" name="top"/>
  <outline>
    <contour>
      <point x="42" y="0" type="line"/>
      <point x="177" y="0" type="line"/>
      <point x="177" y="20" type="line"/>
      <point x="176" y="20" type="line" smooth="yes"/>
      <point x="129" y="20"/>
      <point x="123" y="26"/>
      <point x="123" y="96" type="curve" smooth="yes"/>
      <point x="123" y="440" type="line" smooth="yes"/>
      <point x="123" y="510"/>
      <point x="129" y="516"/>
      <point x="176" y="516" type="curve" smooth="yes"/>
      <point x="178" y="516" type="line"/>
      <point x="178" y="536" type="line"/>
      <point x="42" y="536" type="line"/>
      <point x="42" y="516" type="line"/>
      <point x="43" y="516" type="line" smooth="yes"/>
      <point x="89" y="516"/>
      <point x="95" y="510"/>
      <point x="95" y="440" type="curve" smooth="yes"/>
      <point x="95" y="96" type="line" smooth="yes"/>
      <point x="95" y="26"/>
      <point x="89" y="20"/>
      <point x="43" y="20" type="curve" smooth="yes"/>
      <point x="42" y="20" type="line"/>
    </contour>
    <contour>
      <point x="104" y="-159" type="curve" smooth="yes"/>
      <point x="117" y="-159"/>
      <point x="127" y="-150"/>
      <point x="127" y="-119" type="curve" smooth="yes"/>
      <point x="127" y="-87"/>
      <point x="117" y="-79"/>
      <point x="104" y="-79" type="curve" smooth="yes"/>
      <point x="90" y="-79"/>
      <point x="82" y="-87"/>
      <point x="82" y="-119" type="curve" smooth="yes"/>
      <point x="82" y="-150"/>
      <point x="90" y="-159"/>
    </contour>
  </outline>
</glyph>
<glyph name="uni1D24" format="2">
  <advance width="306"/>
  <unicode hex="1D24"/>
  <anchor x="153" y="0" name="bottom"/>
  <anchor x="153" y="536" name="top"/>
  <outline>
    <contour>
      <point x="163" y="-27" type="curve" smooth="yes"/>
      <point x="244" y="-27"/>
      <point x="276" y="33"/>
      <point x="276" y="76" type="curve" smooth="yes"/>
      <point x="276" y="108"/>
      <point x="268" y="122"/>
      <point x="255" y="122" type="curve"/>
      <point x="255" y="43"/>
      <point x="226" y="-2"/>
      <point x="162" y="-2" type="curve" smooth="yes"/>
      <point x="101" y="-2"/>
      <point x="66" y="35"/>
      <point x="66" y="112" type="curve" smooth="yes"/>
      <point x="66" y="179"/>
      <point x="103" y="212"/>
      <point x="161" y="250" type="curve"/>
      <point x="161" y="284" type="line"/>
      <point x="234" y="331"/>
      <point x="258" y="366"/>
      <point x="258" y="421" type="curve" smooth="yes"/>
      <point x="258" y="493"/>
      <point x="217" y="541"/>
      <point x="150" y="541" type="curve" smooth="yes"/>
      <point x="88" y="541"/>
      <point x="46" y="504"/>
      <point x="46" y="450" type="curve" smooth="yes"/>
      <point x="46" y="421"/>
      <point x="52" y="405"/>
      <point x="67" y="405" type="curve"/>
      <point x="67" y="478"/>
      <point x="93" y="516"/>
      <point x="150" y="516" type="curve" smooth="yes"/>
      <point x="207" y="516"/>
      <point x="230" y="473"/>
      <point x="230" y="420" type="curve" smooth="yes"/>
      <point x="230" y="380"/>
      <point x="209" y="347"/>
      <point x="158" y="316" type="curve"/>
      <point x="158" y="282" type="line"/>
      <point x="87" y="236"/>
      <point x="38" y="199"/>
      <point x="38" y="109" type="curve" smooth="yes"/>
      <point x="38" y="24"/>
      <point x="85" y="-27"/>
    </contour>
  </outline>
</glyph>
<glyph name="uni1FEF" format="2">
  <advance width="160"/>
  <unicode hex="1FEF"/>
  <anchor x="81" y="536" name="_top"/>
  <anchor x="81" y="760" name="top"/>
  <outline>
    <contour>
      <point x="122" y="600" type="curve"/>
      <point x="128" y="600" type="line"/>
      <point x="128" y="611" type="line"/>
      <point x="113" y="643"/>
      <point x="84" y="716"/>
      <point x="77" y="760" type="curve"/>
      <point x="34" y="760" type="line"/>
      <point x="34" y="752" type="line"/>
      <point x="49" y="715"/>
      <point x="100" y="632"/>
    </contour>
  </outline>
</glyph>
<glyph name="uni1FFD" format="2">
  <advance width="160"/>
  <unicode hex="1FFD"/>
  <anchor x="82" y="536" name="_top"/>
  <anchor x="82" y="760" name="top"/>
  <outline>
    <contour>
      <point x="35" y="600" type="line"/>
      <point x="41" y="600" type="line"/>
      <point x="63" y="626"/>
      <point x="117" y="725"/>
      <point x="128" y="752" type="curve"/>
      <point x="128" y="760" type="line"/>
      <point x="83" y="760" type="line"/>
      <point x="77" y="716"/>
      <point x="56" y="648"/>
      <point x="35" y="611" type="curve"/>
    </contour>
  </outline>
</glyph>
<glyph name="parenleftsuperior" format="2">
  <advance width="190"/>
  <unicode hex="207D"/>
  <outline>
    <contour>
      <point x="158" y="195" type="curve"/>
      <point x="158" y="214" type="line"/>
      <point x="98" y="274"/>
      <point x="73" y="384"/>
      <point x="73" y="491" type="curve" smooth="yes"/>
      <point x="73" y="598"/>
      <point x="98" y="708"/>
      <point x="158" y="768" type="curve"/>
      <point x="158" y="787" type="line"/>
      <point x="84" y="729"/>
      <point x="45" y="635"/>
      <point x="45" y="491" type="curve" smooth="yes"/>
      <point x="45" y="346"/>
      <point x="84" y="252"/>
    </contour>
  </outline>
</glyph>
<glyph name="parenrightsuperior" format="2">
  <advance width="190"/>
  <unicode hex="207E"/>
  <outline>
    <contour>
      <point x="45" y="195" type="line"/>
      <point x="119" y="252"/>
      <point x="158" y="346"/>
      <point x="158" y="491" type="curve" smooth="yes"/>
      <point x="158" y="635"/>
      <point x="119" y="729"/>
      <point x="45" y="787" type="curve"/>
      <point x="45" y="768" type="line"/>
      <point x="105" y="708"/>
      <point x="130" y="598"/>
      <point x="130" y="491" type="curve" smooth="yes"/>
      <point x="130" y="384"/>
      <point x="105" y="274"/>
      <point x="45" y="214" type="curve"/>
    </contour>
  </outline>
</glyph>
<glyph name="uni20A9" format="2">
  <advance width="771"/>
  <unicode hex="20A9"/>
  <outline>
    <contour>
      <point x="205" y="0" type="line"/>
      <point x="233" y="0" type="line"/>
      <point x="301" y="290" type="line"/>
      <point x="467" y="290" type="line"/>
      <point x="529" y="0" type="line"/>
      <point x="557" y="0" type="line"/>
      <point x="620" y="290" type="line"/>
      <point x="739" y="290" type="line"/>
      <point x="739" y="315" type="line"/>
      <point x="626" y="315" type="line"/>
      <point x="646" y="408" type="line"/>
      <point x="739" y="408" type="line"/>
      <point x="739" y="433" type="line"/>
      <point x="652" y="433" type="line"/>
      <point x="698" y="645" type="line" smooth="yes"/>
      <point x="708" y="691"/>
      <point x="718" y="694"/>
      <point x="762" y="694" type="curve" smooth="yes"/>
      <point x="765" y="694" type="line"/>
      <point x="765" y="714" type="line"/>
      <point x="593" y="714" type="line"/>
      <point x="593" y="694" type="line"/>
      <point x="619" y="694" type="line" smooth="yes"/>
      <point x="669" y="694"/>
      <point x="674" y="685"/>
      <point x="674" y="666" type="curve" smooth="yes"/>
      <point x="674" y="652"/>
      <point x="669" y="631"/>
      <point x="661" y="593" type="curve" smooth="yes"/>
      <point x="626" y="433" type="line"/>
      <point x="463" y="433" type="line"/>
      <point x="402" y="714" type="line"/>
      <point x="374" y="714" type="line"/>
      <point x="308" y="433" type="line"/>
      <point x="150" y="433" type="line"/>
      <point x="119" y="591" type="line" smooth="yes"/>
      <point x="112" y="629"/>
      <point x="106" y="653"/>
      <point x="106" y="666" type="curve" smooth="yes"/>
      <point x="106" y="685"/>
      <point x="111" y="694"/>
      <point x="161" y="694" type="curve" smooth="yes"/>
      <point x="178" y="694" type="line"/>
      <point x="178" y="714" type="line"/>
      <point x="14" y="714" type="line"/>
      <point x="14" y="694" type="line"/>
      <point x="17" y="694" type="line" smooth="yes"/>
      <point x="60" y="694"/>
      <point x="71" y="690"/>
      <point x="80" y="646" type="curve" smooth="yes"/>
      <point x="121" y="433" type="line"/>
      <point x="30" y="433" type="line"/>
      <point x="30" y="408" type="line"/>
      <point x="126" y="408" type="line"/>
      <point x="144" y="315" type="line"/>
      <point x="30" y="315" type="line"/>
      <point x="30" y="290" type="line"/>
      <point x="149" y="290" type="line"/>
    </contour>
    <contour>
      <point x="220" y="56" type="line"/>
      <point x="178" y="290" type="line"/>
      <point x="275" y="290" type="line"/>
    </contour>
    <contour>
      <point x="173" y="315" type="line"/>
      <point x="155" y="408" type="line"/>
      <point x="303" y="408" type="line"/>
      <point x="281" y="315" type="line"/>
    </contour>
    <contour>
      <point x="543" y="52" type="line"/>
      <point x="494" y="290" type="line"/>
      <point x="595" y="290" type="line"/>
    </contour>
    <contour>
      <point x="307" y="315" type="line"/>
      <point x="328" y="408" type="line"/>
      <point x="441" y="408" type="line"/>
      <point x="461" y="315" type="line"/>
    </contour>
    <contour>
      <point x="334" y="433" type="line"/>
      <point x="387" y="660" type="line"/>
      <point x="436" y="433" type="line"/>
    </contour>
    <contour>
      <point x="488" y="315" type="line"/>
      <point x="468" y="408" type="line"/>
      <point x="621" y="408" type="line"/>
      <point x="600" y="315" type="line"/>
    </contour>
  </outline>
</glyph>
<glyph name="uniA670" format="2">
  <unicode hex="A670"/>
  <outline>
    <contour>
      <point x="173" y="451" type="line"/>
      <point x="218" y="509" type="line"/>
      <point x="262" y="451" type="line"/>
      <point x="292" y="489" type="line"/>
      <point x="247" y="547" type="line"/>
      <point x="292" y="606" type="line"/>
      <point x="263" y="643" type="line"/>
      <point x="218" y="585" type="line"/>
      <point x="173" y="643" type="line"/>
      <point x="143" y="606" type="line"/>
      <point x="189" y="547" type="line"/>
      <point x="143" y="489" type="line"/>
    </contour>
    <contour>
      <point x="-263" y="-105" type="line"/>
      <point x="-218" y="-47" type="line"/>
      <point x="-173" y="-105" type="line"/>
      <point x="-144" y="-67" type="line"/>
      <point x="-188" y="-9" type="line"/>
      <point x="-144" y="50" type="line"/>
      <point x="-173" y="87" type="line"/>
      <point x="-218" y="29" type="line"/>
      <point x="-263" y="87" type="line"/>
      <point x="-292" y="50" type="line"/>
      <point x="-247" y="-9" type="line"/>
      <point x="-292" y="-67" type="line"/>
    </contour>
    <contour>
      <point x="-248" y="174" type="line"/>
      <point x="-219" y="212" type="line"/>
      <point x="-264" y="270" type="line"/>
      <point x="-219" y="328" type="line"/>
      <point x="-248" y="366" type="line"/>
      <point x="-293" y="308" type="line"/>
      <point x="-339" y="366" type="line"/>
      <point x="-368" y="329" type="line"/>
      <point x="-322" y="270" type="line"/>
      <point x="-368" y="213" type="line"/>
      <point x="-339" y="175" type="line"/>
      <point x="-293" y="234" type="line"/>
    </contour>
    <contour>
      <point x="-45" y="-203" type="line"/>
      <point x="0" y="-145" type="line"/>
      <point x="44" y="-203" type="line"/>
      <point x="74" y="-165" type="line"/>
      <point x="29" y="-107" type="line"/>
      <point x="74" y="-48" type="line"/>
      <point x="45" y="-11" type="line"/>
      <point x="0" y="-69" type="line"/>
      <point x="-45" y="-11" type="line"/>
      <point x="-74" y="-48" type="line"/>
      <point x="-29" y="-107" type="line"/>
      <point x="-74" y="-165" type="line"/>
    </contour>
    <contour>
      <point x="-263" y="451" type="line"/>
      <point x="-218" y="509" type="line"/>
      <point x="-173" y="451" type="line"/>
      <point x="-144" y="489" type="line"/>
      <point x="-188" y="547" type="line"/>
      <point x="-144" y="606" type="line"/>
      <point x="-173" y="643" type="line"/>
      <point x="-218" y="585" type="line"/>
      <point x="-263" y="643" type="line"/>
      <point x="-292" y="606" type="line"/>
      <point x="-247" y="547" type="line"/>
      <point x="-292" y="489" type="line"/>
    </contour>
    <contour>
      <point x="173" y="-105" type="line"/>
      <point x="218" y="-47" type="line"/>
      <point x="262" y="-105" type="line"/>
      <point x="292" y="-67" type="line"/>
      <point x="247" y="-9" type="line"/>
      <point x="292" y="50" type="line"/>
      <point x="263" y="87" type="line"/>
      <point x="218" y="29" type="line"/>
      <point x="173" y="87" type="line"/>
      <point x="143" y="50" type="line"/>
      <point x="189" y="-9" type="line"/>
      <point x="143" y="-67" type="line"/>
    </contour>
    <contour>
      <point x="246" y="174" type="line"/>
      <point x="292" y="233" type="line"/>
      <point x="337" y="174" type="line"/>
      <point x="366" y="212" type="line"/>
      <point x="321" y="270" type="line"/>
      <point x="366" y="328" type="line"/>
      <point x="337" y="366" type="line"/>
      <point x="292" y="308" type="line"/>
      <point x="246" y="366" type="line"/>
      <point x="218" y="329" type="line"/>
      <point x="262" y="270" type="line"/>
      <point x="218" y="212" type="line"/>
    </contour>
    <contour>
      <point x="-45" y="552" type="line"/>
      <point x="0" y="610" type="line"/>
      <point x="44" y="552" type="line"/>
      <point x="74" y="590" type="line"/>
      <point x="29" y="648" type="line"/>
      <point x="74" y="707" type="line"/>
      <point x="45" y="744" type="line"/>
      <point x="0" y="686" type="line"/>
      <point x="-45" y="744" type="line"/>
      <point x="-74" y="707" type="line"/>
      <point x="-29" y="648" type="line"/>
      <point x="-74" y="590" type="line"/>
    </contour>
  </outline>
</glyph>
<glyph name="uniA671" format="2">
  <unicode hex="A671"/>
  <outline>
    <contour>
      <point x="-214" y="579" type="line"/>
      <point x="-178" y="579" type="line"/>
      <point x="-178" y="678" type="line"/>
      <point x="177" y="678" type="line"/>
      <point x="177" y="579" type="line"/>
      <point x="213" y="579" type="line"/>
      <point x="213" y="738" type="line"/>
      <point x="-214" y="738" type="line"/>
    </contour>
    <contour>
      <point x="-214" y="-202" type="line"/>
      <point x="213" y="-202" type="line"/>
      <point x="213" y="-43" type="line"/>
      <point x="177" y="-43" type="line"/>
      <point x="177" y="-142" type="line"/>
      <point x="-178" y="-142" type="line"/>
      <point x="-178" y="-43" type="line"/>
      <point x="-214" y="-43" type="line"/>
    </contour>
  </outline>
</glyph>
<glyph name="uniA764" format="2">
  <advance width="434"/>
  <unicode hex="A764"/>
  <outline>
    <contour>
      <point x="36" y="0" type="line"/>
      <point x="216" y="0" type="line"/>
      <point x="216" y="20" type="line"/>
      <point x="196" y="20" type="line" smooth="yes"/>
      <point x="146" y="20"/>
      <point x="140" y="31"/>
      <point x="140" y="108" type="curve" smooth="yes"/>
      <point x="140" y="148" type="line"/>
      <point x="202" y="148" type="line" smooth="yes"/>
      <point x="333" y="148"/>
      <point x="397" y="193"/>
      <point x="397" y="343" type="curve" smooth="yes"/>
      <point x="397" y="478"/>
      <point x="344" y="534"/>
      <point x="219" y="534" type="curve" smooth="yes"/>
      <point x="140" y="534" type="line"/>
      <point x="140" y="598" type="line"/>
      <point x="232" y="598" type="line"/>
      <point x="232" y="623" type="line"/>
      <point x="140" y="623" type="line"/>
      <point x="141" y="685"/>
      <point x="150" y="694"/>
      <point x="196" y="694" type="curve" smooth="yes"/>
      <point x="216" y="694" type="line"/>
      <point x="216" y="714" type="line"/>
      <point x="36" y="714" type="line"/>
      <point x="36" y="694" type="line"/>
      <point x="56" y="694" type="line" smooth="yes"/>
      <point x="102" y="694"/>
      <point x="111" y="685"/>
      <point x="112" y="623" type="curve"/>
      <point x="36" y="623" type="line"/>
      <point x="36" y="598" type="line"/>
      <point x="112" y="598" type="line"/>
      <point x="112" y="108" type="line" smooth="yes"/>
      <point x="112" y="31"/>
      <point x="106" y="20"/>
      <point x="56" y="20" type="curve" smooth="yes"/>
      <point x="36" y="20" type="line"/>
    </contour>
    <contour>
      <point x="140" y="173" type="line"/>
      <point x="140" y="509" type="line"/>
      <point x="217" y="509" type="line" smooth="yes"/>
      <point x="328" y="509"/>
      <point x="369" y="464"/>
      <point x="369" y="339" type="curve" smooth="yes"/>
      <point x="369" y="211"/>
      <point x="320" y="173"/>
      <point x="204" y="173" type="curve" smooth="yes"/>
    </contour>
  </outline>
</glyph>
<glyph name="uniA7AE" format="2">
  <advance width="411"/>
  <unicode hex="A7AE"/>
  <outline>
    <contour>
      <point x="33" y="0" type="line"/>
      <point x="378" y="0" type="line"/>
      <point x="381" y="117" type="line"/>
      <point x="363" y="117" type="line"/>
      <point x="361" y="81" type="line" smooth="yes"/>
      <point x="359" y="42"/>
      <point x="352" y="24"/>
      <point x="315" y="24" type="curve" smooth="yes"/>
      <point x="221" y="24" type="line"/>
      <point x="221" y="690" type="line"/>
      <point x="315" y="690" type="line" smooth="yes"/>
      <point x="352" y="690"/>
      <point x="359" y="672"/>
      <point x="361" y="633" type="curve" smooth="yes"/>
      <point x="363" y="597" type="line"/>
      <point x="381" y="597" type="line"/>
      <point x="378" y="714" type="line"/>
      <point x="33" y="714" type="line"/>
      <point x="30" y="597" type="line"/>
      <point x="49" y="597" type="line"/>
      <point x="51" y="633" type="line" smooth="yes"/>
      <point x="53" y="672"/>
      <point x="59" y="690"/>
      <point x="97" y="690" type="curve" smooth="yes"/>
      <point x="191" y="690" type="line"/>
      <point x="191" y="24" type="line"/>
      <point x="97" y="24" type="line" smooth="yes"/>
      <point x="59" y="24"/>
      <point x="52" y="42"/>
      <point x="51" y="81" type="curve" smooth="yes"/>
      <point x="49" y="117" type="line"/>
      <point x="30" y="117" type="line"/>
    </contour>
  </outline>
</glyph>
<glyph name="uniA7FF" format="2">
  <advance width="812"/>
  <unicode hex="A7FF"/>
  <outline>
    <contour>
      <point x="2" y="0" type="line"/>
      <point x="143" y="0" type="line"/>
      <point x="143" y="20" type="line"/>
      <point x="129" y="20" type="line" smooth="yes"/>
      <point x="93" y="20"/>
      <point x="83" y="23"/>
      <point x="83" y="38" type="curve" smooth="yes"/>
      <point x="83" y="52"/>
      <point x="95" y="96"/>
      <point x="104" y="128" type="curve" smooth="yes"/>
      <point x="157" y="324" type="line" smooth="yes"/>
      <point x="173" y="383"/>
      <point x="197" y="466"/>
      <point x="206" y="507" type="curve"/>
      <point x="208" y="507" type="line"/>
      <point x="214" y="479"/>
      <point x="229" y="415"/>
      <point x="250" y="321" type="curve" smooth="yes"/>
      <point x="323" y="0" type="line"/>
      <point x="356" y="0" type="line"/>
      <point x="484" y="502" type="line"/>
      <point x="611" y="0" type="line"/>
      <point x="647" y="0" type="line"/>
      <point x="752" y="467" type="line" smooth="yes"/>
      <point x="762" y="513"/>
      <point x="769" y="516"/>
      <point x="810" y="516" type="curve" smooth="yes"/>
      <point x="813" y="516" type="line"/>
      <point x="813" y="536" type="line"/>
      <point x="670" y="536" type="line"/>
      <point x="670" y="516" type="line"/>
      <point x="693" y="516" type="line" smooth="yes"/>
      <point x="727" y="516"/>
      <point x="731" y="509"/>
      <point x="731" y="496" type="curve" smooth="yes"/>
      <point x="731" y="484"/>
      <point x="724" y="459"/>
      <point x="717" y="428" type="curve" smooth="yes"/>
      <point x="667" y="208" type="line" smooth="yes"/>
      <point x="648" y="125"/>
      <point x="635" y="67"/>
      <point x="630" y="23" type="curve"/>
      <point x="627" y="23" type="line"/>
      <point x="621" y="69"/>
      <point x="596" y="173"/>
      <point x="583" y="223" type="curve" smooth="yes"/>
      <point x="501" y="536" type="line"/>
      <point x="466" y="536" type="line"/>
      <point x="383" y="207" type="line" smooth="yes"/>
      <point x="371" y="158"/>
      <point x="344" y="63"/>
      <point x="342" y="27" type="curve"/>
      <point x="339" y="27" type="line"/>
      <point x="335" y="64"/>
      <point x="315" y="160"/>
      <point x="304" y="208" type="curve" smooth="yes"/>
      <point x="226" y="536" type="line"/>
      <point x="190" y="536" type="line"/>
      <point x="59" y="68" type="line" smooth="yes"/>
      <point x="47" y="26"/>
      <point x="43" y="20"/>
      <point x="4" y="20" type="curve" smooth="yes"/>
      <point x="2" y="20" type="line"/>
    </contour>
  </outline>
</glyph>
<glyph name="uniAB41" format="2">
  <advance width="655"/>
  <unicode hex="AB41"/>
  <anchor x="330" y="535" name="bottom"/>
  <anchor x="330" y="-1" name="top"/>
  <outline>
    <contour>
      <point x="293" y="-32" type="line"/>
      <point x="319" y="-32" type="line"/>
      <point x="620" y="570" type="line"/>
      <point x="594" y="570" type="line"/>
    </contour>
    <component base="oe" xScale="-1" yScale="-1" xOffset="663" yOffset="535"/>
  </outline>
</glyph>
<glyph name="uniAB60" format="2">
  <advance width="656"/>
  <unicode hex="AB60"/>
  <outline>
    <contour>
      <point x="253" y="0" type="line"/>
      <point x="460" y="0" type="line" smooth="yes"/>
      <point x="552" y="0"/>
      <point x="609" y="47"/>
      <point x="609" y="153" type="curve" smooth="yes"/>
      <point x="609" y="265"/>
      <point x="540" y="287"/>
      <point x="445" y="287" type="curve" smooth="yes"/>
      <point x="363" y="287" type="line"/>
      <point x="363" y="440" type="line" smooth="yes"/>
      <point x="363" y="511"/>
      <point x="369" y="516"/>
      <point x="428" y="516" type="curve" smooth="yes"/>
      <point x="437" y="516" type="line"/>
      <point x="437" y="536" type="line"/>
      <point x="253" y="536" type="line"/>
      <point x="253" y="516" type="line"/>
      <point x="268" y="516" type="line" smooth="yes"/>
      <point x="329" y="516"/>
      <point x="335" y="511"/>
      <point x="335" y="440" type="curve" smooth="yes"/>
      <point x="335" y="96" type="line" smooth="yes"/>
      <point x="335" y="26"/>
      <point x="329" y="20"/>
      <point x="268" y="20" type="curve" smooth="yes"/>
      <point x="253" y="20" type="line"/>
    </contour>
    <contour>
      <point x="37" y="0" type="line"/>
      <point x="202" y="0" type="line"/>
      <point x="202" y="20" type="line"/>
      <point x="198" y="20" type="line" smooth="yes"/>
      <point x="138" y="20"/>
      <point x="132" y="26"/>
      <point x="132" y="96" type="curve" smooth="yes"/>
      <point x="132" y="440" type="line" smooth="yes"/>
      <point x="132" y="509"/>
      <point x="138" y="516"/>
      <point x="198" y="516" type="curve" smooth="yes"/>
      <point x="202" y="516" type="line"/>
      <point x="202" y="536" type="line"/>
      <point x="37" y="536" type="line"/>
      <point x="37" y="516" type="line"/>
      <point x="42" y="516" type="line" smooth="yes"/>
      <point x="98" y="516"/>
      <point x="104" y="509"/>
      <point x="104" y="440" type="curve" smooth="yes"/>
      <point x="104" y="96" type="line" smooth="yes"/>
      <point x="104" y="26"/>
      <point x="98" y="20"/>
      <point x="38" y="20" type="curve" smooth="yes"/>
      <point x="37" y="20" type="line"/>
    </contour>
    <contour>
      <point x="363" y="25" type="line"/>
      <point x="363" y="262" type="line"/>
      <point x="455" y="262" type="line" smooth="yes"/>
      <point x="546" y="262"/>
      <point x="581" y="233"/>
      <point x="581" y="153" type="curve" smooth="yes"/>
      <point x="581" y="64"/>
      <point x="544" y="25"/>
      <point x="461" y="25" type="curve" smooth="yes"/>
    </contour>
  </outline>
</glyph>
<glyph name="uniFE22" format="2">
  <unicode hex="FE22"/>
  <anchor x="2" y="536" name="_top"/>
  <outline>
    <contour>
      <point x="-291" y="600" type="curve"/>
      <point x="-266" y="600" type="line"/>
      <point x="-249" y="660"/>
      <point x="-218" y="675"/>
      <point x="-169" y="675" type="curve" smooth="yes"/>
      <point x="-112" y="675"/>
      <point x="-51" y="659"/>
      <point x="2" y="640" type="curve"/>
      <point x="2" y="668" type="line"/>
      <point x="-42" y="683"/>
      <point x="-94" y="703"/>
      <point x="-166" y="703" type="curve" smooth="yes"/>
      <point x="-225" y="703"/>
      <point x="-275" y="671"/>
    </contour>
  </outline>
</glyph>
<glyph name="uniFE23" format="2">
  <unicode hex="FE23"/>
  <anchor x="-1" y="536" name="_top"/>
  <outline>
    <contour>
      <point x="167" y="605" type="curve" smooth="yes"/>
      <point x="226" y="605"/>
      <point x="276" y="637"/>
      <point x="292" y="708" type="curve"/>
      <point x="267" y="708" type="line"/>
      <point x="250" y="648"/>
      <point x="219" y="633"/>
      <point x="170" y="633" type="curve" smooth="yes"/>
      <point x="113" y="633"/>
      <point x="52" y="649"/>
      <point x="-1" y="668" type="curve"/>
      <point x="-1" y="640" type="line"/>
      <point x="43" y="625"/>
      <point x="95" y="605"/>
    </contour>
  </outline>
</glyph>
<glyph name="uniFE28" format="2">
  <unicode hex="FE28"/>
  <anchor x="0" y="0" name="_bottom"/>
  <anchor x="147" y="536" name="braceleft"/>
  <outline>
    <contour>
      <point x="0" y="-200" type="line"/>
      <point x="150" y="-200"/>
      <point x="223" y="-161"/>
      <point x="294" y="-39" type="curve"/>
      <point x="276" y="-39" type="line"/>
      <point x="218" y="-139"/>
      <point x="120" y="-172"/>
      <point x="0" y="-172" type="curve"/>
    </contour>
  </outline>
</glyph>
<glyph name="uniFE29" format="2">
  <unicode hex="FE29"/>
  <anchor x="0" y="0" name="_bottom"/>
  <anchor x="-140" y="536" name="braceleft"/>
  <outline>
    <contour>
      <point x="-280" y="-189" type="curve"/>
      <point x="-255" y="-189" type="line"/>
      <point x="-251" y="-167"/>
      <point x="-244" y="-153"/>
      <point x="-235" y="-139" type="curve" smooth="yes"/>
      <point x="-219" y="-116"/>
      <point x="-191" y="-102"/>
      <point x="-154" y="-102" type="curve" smooth="yes"/>
      <point x="-114" y="-102"/>
      <point x="-67" y="-115"/>
      <point x="0" y="-139" type="curve"/>
      <point x="0" y="-110" type="line"/>
      <point x="-53" y="-91"/>
      <point x="-105" y="-74"/>
      <point x="-152" y="-74" type="curve" smooth="yes"/>
      <point x="-220" y="-74"/>
      <point x="-267" y="-117"/>
    </contour>
  </outline>
</glyph>
<glyph name="uniFE2A" format="2">
  <unicode hex="FE2A"/>
  <anchor x="0" y="0" name="_bottom"/>
  <anchor x="140" y="536" name="braceleft"/>
  <outline>
    <contour>
      <point x="152" y="-187" type="curve" smooth="yes"/>
      <point x="220" y="-187"/>
      <point x="267" y="-144"/>
      <point x="280" y="-72" type="curve"/>
      <point x="255" y="-72" type="line"/>
      <point x="251" y="-94"/>
      <point x="244" y="-108"/>
      <point x="235" y="-122" type="curve" smooth="yes"/>
      <point x="219" y="-145"/>
      <point x="191" y="-159"/>
      <point x="154" y="-159" type="curve" smooth="yes"/>
      <point x="114" y="-159"/>
      <point x="67" y="-146"/>
      <point x="0" y="-122" type="curve"/>
      <point x="0" y="-151" type="line"/>
      <point x="53" y="-170"/>
      <point x="105" y="-187"/>
    </contour>
  </outline>
</glyph>
<glyph name="uniFE2B" format="2">
  <unicode hex="FE2B"/>
  <anchor x="0" y="0" name="_bottom"/>
  <anchor x="138" y="536" name="braceleft"/>
  <outline>
    <contour>
      <point x="0" y="-186" type="line"/>
      <point x="276" y="-186" type="line"/>
      <point x="276" y="-158" type="line"/>
      <point x="0" y="-158" type="line"/>
    </contour>
  </outline>
</glyph>
<glyph name="uniFE2E" format="2">
  <unicode hex="FE2E"/>
  <anchor x="-81" y="536" name="_top"/>
  <outline>
    <contour>
      <point x="-81" y="583" type="curve" smooth="yes"/>
      <point x="-66" y="583"/>
      <point x="-62" y="599"/>
      <point x="-61" y="630" type="curve"/>
      <point x="99" y="630" type="line"/>
      <point x="99" y="658" type="line"/>
      <point x="-79" y="658" type="line" smooth="yes"/>
      <point x="-97" y="658"/>
      <point x="-99" y="657"/>
      <point x="-99" y="635" type="curve" smooth="yes"/>
      <point x="-99" y="597"/>
      <point x="-97" y="583"/>
    </contour>
  </outline>
</glyph>
<glyph name="uniFE2F" format="2">
  <unicode hex="FE2F"/>
  <anchor x="82" y="536" name="_top"/>
  <outline>
    <contour>
      <point x="-100" y="616" type="line"/>
      <point x="80" y="616" type="line" smooth="yes"/>
      <point x="98" y="616"/>
      <point x="100" y="617"/>
      <point x="100" y="639" type="curve" smooth="yes"/>
      <point x="100" y="677"/>
      <point x="98" y="691"/>
      <point x="82" y="691" type="curve" smooth="yes"/>
      <point x="67" y="691"/>
      <point x="63" y="675"/>
      <point x="62" y="644" type="curve"/>
      <point x="-100" y="644" type="line"/>
    </contour>
  </outline>
</glyph>
